<?xml version="1.0" standalone="no"?>
<!DOCTYPE svg PUBLIC "-//W3C//DTD SVG 20010904//EN"
 "http://www.w3.org/TR/2001/REC-SVG-20010904/DTD/svg10.dtd">
<svg version="1.0" xmlns="http://www.w3.org/2000/svg"
 width="457.000000pt" height="199.000000pt" viewBox="0 0 457.000000 199.000000"
 preserveAspectRatio="xMidYMid meet">

<g transform="translate(0.000000,199.000000) scale(0.100000,-0.100000)"
fill="#000000" stroke="none">
<path d="M20 1930 l0 -30 2270 0 2270 0 0 30 0 30 -2270 0 -2270 0 0 -30z"/>
<path d="M2864 1846 c-75 -75 -9 -182 100 -162 82 15 121 122 63 172 -22 18
-40 24 -79 24 -44 0 -54 -4 -84 -34z"/>
<path d="M305 1758 c-13 -55 -155 -774 -155 -785 0 -10 22 -13 84 -13 79 0 84
1 89 23 3 12 24 117 47 232 22 116 43 217 46 225 3 8 43 -75 89 -185 l83 -200
43 -3 44 -2 75 97 c147 190 232 295 235 291 2 -1 -18 -110 -44 -240 l-48 -238
87 0 c83 0 88 1 93 23 3 12 38 186 77 387 39 201 74 375 77 388 5 23 4 23 -78
20 l-83 -3 -191 -245 c-106 -134 -197 -246 -202 -247 -6 -2 -55 108 -110 244
l-99 248 -77 3 c-73 3 -77 2 -82 -20z"/>
<path d="M2292 1584 c-72 -19 -104 -37 -140 -78 -61 -69 -65 -168 -11 -224 31
-32 86 -54 179 -72 112 -23 143 -51 101 -94 -19 -19 -32 -21 -119 -20 -75 0
-110 5 -152 22 -30 12 -56 22 -57 22 -8 0 -63 -115 -59 -126 3 -7 38 -23 78
-36 102 -31 267 -31 350 1 111 43 169 143 139 241 -19 64 -55 83 -230 125 -75
18 -91 29 -91 61 0 67 157 77 290 20 12 -5 24 10 48 59 37 75 38 74 -70 100
-78 18 -186 18 -256 -1z"/>
<path d="M3309 1582 c-158 -52 -251 -181 -251 -346 0 -85 18 -136 70 -189 49
-51 96 -74 181 -89 120 -21 244 15 323 94 21 21 38 41 38 46 0 8 -115 82 -128
82 -4 0 -13 -9 -20 -21 -7 -11 -32 -29 -55 -40 -80 -36 -169 -17 -207 43 -17
27 -20 46 -18 99 6 124 83 195 201 187 54 -4 63 -8 95 -43 l35 -38 74 37 73
36 -14 28 c-21 41 -65 78 -121 103 -69 31 -199 36 -276 11z"/>
<path d="M1376 1578 c-12 -41 -76 -388 -76 -413 0 -179 191 -268 374 -175 l58
30 -6 -30 -5 -30 84 0 c79 0 85 1 90 23 3 12 32 154 64 315 l58 293 -90 -3
-91 -3 -37 -182 c-24 -118 -45 -195 -59 -218 -40 -65 -142 -95 -209 -60 -33
17 -41 33 -41 84 0 31 41 258 65 359 5 22 4 22 -85 22 -64 0 -92 -4 -94 -12z"/>
<path d="M2756 1293 c-33 -164 -61 -306 -64 -315 -4 -16 5 -18 85 -18 l90 0
62 308 c33 169 61 310 61 315 0 4 -39 7 -88 7 l-87 0 -59 -297z"/>
<path d="M2183 905 c-84 -36 -61 -155 31 -155 98 0 134 128 45 159 -39 13 -37
13 -76 -4z"/>
<path d="M275 808 c-13 -55 -125 -623 -125 -635 0 -9 20 -13 73 -13 l74 0 19
93 19 92 69 0 68 0 52 -90 52 -90 82 -3 81 -3 -59 103 -59 102 52 28 c69 38
83 52 113 114 23 46 26 64 22 127 -3 62 -8 80 -31 111 -55 72 -87 81 -304 84
l-192 4 -6 -24z m342 -118 c64 -41 53 -152 -20 -195 -24 -15 -56 -20 -134 -23
-57 -3 -103 -2 -103 0 0 9 41 213 46 227 6 18 179 11 211 -9z"/>
<path d="M1060 671 c-120 -37 -202 -150 -202 -280 0 -78 9 -106 54 -157 48
-54 106 -77 197 -77 84 0 139 13 189 43 32 20 33 21 17 48 -39 66 -41 66 -79
48 -49 -23 -117 -30 -160 -16 -39 13 -76 52 -76 81 0 17 13 19 198 21 l197 3
3 55 c4 71 -11 121 -51 167 -47 53 -98 73 -187 72 -41 0 -86 -4 -100 -8z m159
-116 c32 -16 60 -70 44 -86 -15 -15 -245 -7 -251 9 -2 7 14 30 36 52 36 36 44
40 91 40 29 0 65 -7 80 -15z"/>
<path d="M1470 665 c0 -15 95 -452 106 -488 5 -15 16 -17 81 -15 l76 3 149
240 c82 132 154 248 159 258 9 15 3 17 -63 17 l-73 0 -95 -157 c-136 -224
-122 -216 -149 -87 -13 60 -30 139 -38 177 l-15 67 -69 0 c-55 0 -69 -3 -69
-15z"/>
<path d="M2115 668 c-2 -7 -26 -124 -53 -260 l-49 -248 73 0 c41 0 74 1 74 3
0 2 23 115 50 252 28 137 50 252 50 257 0 14 -140 10 -145 -4z"/>
<path d="M2520 671 c-120 -37 -202 -150 -202 -280 0 -78 9 -106 54 -157 48
-54 106 -77 197 -77 84 0 139 13 189 43 32 20 33 21 17 48 -39 66 -41 66 -79
48 -49 -23 -117 -30 -160 -16 -39 13 -76 52 -76 81 0 17 13 19 198 21 l197 3
3 55 c4 71 -11 121 -51 167 -47 53 -98 73 -187 72 -41 0 -86 -4 -100 -8z m159
-116 c32 -16 60 -70 44 -86 -15 -15 -245 -7 -251 9 -2 7 14 30 36 52 36 36 44
40 91 40 29 0 65 -7 80 -15z"/>
<path d="M2934 653 c8 -39 86 -481 86 -488 0 -3 33 -5 73 -5 l72 0 90 163 90
162 27 -140 c15 -77 27 -150 28 -163 0 -22 3 -23 76 -20 l76 3 139 250 c76
138 139 254 139 258 0 4 -30 7 -67 5 l-67 -3 -95 -173 c-53 -96 -97 -169 -99
-163 -2 6 -16 83 -31 173 l-27 163 -61 3 c-70 3 -50 26 -177 -201 -43 -76 -81
-136 -84 -132 -3 3 -18 79 -32 168 l-26 162 -68 3 -68 3 6 -28z"/>
<path d="M3957 665 c-89 -33 -127 -82 -127 -162 1 -78 41 -111 171 -138 40 -9
78 -20 86 -26 20 -17 16 -47 -9 -61 -36 -19 -145 -13 -207 11 -30 11 -56 20
-57 18 -8 -10 -44 -89 -44 -97 0 -34 177 -66 277 -50 119 19 181 69 190 153
10 87 -29 125 -157 153 -41 9 -83 21 -92 26 -25 12 -22 44 4 62 29 21 137 21
185 1 19 -8 38 -15 42 -15 8 0 51 85 51 100 0 34 -236 53 -313 25z"/>
<path d="M20 40 l0 -30 2270 0 2270 0 0 30 0 30 -2270 0 -2270 0 0 -30z"/>
</g>
</svg>
