<?xml version="1.0" encoding="UTF-8"?>
<!DOCTYPE svg PUBLIC "-//W3C//DTD SVG 1.1//EN" "http://www.w3.org/Graphics/SVG/1.1/DTD/svg11.dtd">
<svg xmlns="http://www.w3.org/2000/svg" version="1.1" width="178px" height="153px" style="shape-rendering:geometricPrecision; text-rendering:geometricPrecision; image-rendering:optimizeQuality; fill-rule:evenodd; clip-rule:evenodd" xmlns:xlink="http://www.w3.org/1999/xlink">
<g><path style="opacity:0.896" fill="#d1b8a7" d="M 88.5,7.5 C 89.8291,12.9597 90.4958,18.793 90.5,25C 92.023,66.153 92.6896,107.32 92.5,148.5C 90.5,148.5 88.5,148.5 86.5,148.5C 87.7378,101.509 88.4045,54.5091 88.5,7.5 Z"/></g>
<g><path style="opacity:0.901" fill="#d2b9a8" d="M 81.5,19.5 C 82.1174,19.6107 82.6174,19.944 83,20.5C 83.8429,63.168 84.6762,105.835 85.5,148.5C 83.5,148.5 81.5,148.5 79.5,148.5C 79.3613,105.486 80.028,62.4859 81.5,19.5 Z"/></g>
<g><path style="opacity:0.914" fill="#d1b8a7" d="M 96.5,19.5 C 97.1174,19.6107 97.6174,19.944 98,20.5C 98.8048,63.1688 99.6382,105.835 100.5,148.5C 98.5,148.5 96.5,148.5 94.5,148.5C 94.3613,105.486 95.028,62.4859 96.5,19.5 Z"/></g>
<g><path style="opacity:0.919" fill="#d3baa8" d="M 74.5,32.5 C 76.1605,46.9589 76.9938,61.6256 77,76.5C 77.5,100.498 77.6666,124.498 77.5,148.5C 75.5,148.5 73.5,148.5 71.5,148.5C 71.969,109.757 72.969,71.0901 74.5,32.5 Z"/></g>
<g><path style="opacity:0.427" fill="#908088" d="M 105.5,33.5 C 104.833,36.1667 104.167,38.8333 103.5,41.5C 103.183,38.4281 103.516,35.4281 104.5,32.5C 105.107,32.6236 105.44,32.9569 105.5,33.5 Z"/></g>
<g><path style="opacity:0.954" fill="#cbb3a5" d="M 105.5,33.5 C 107.102,71.8113 107.768,110.145 107.5,148.5C 105.5,148.5 103.5,148.5 101.5,148.5C 101.809,112.791 102.476,77.1248 103.5,41.5C 104.167,38.8333 104.833,36.1667 105.5,33.5 Z"/></g>
<g><path style="opacity:0.954" fill="#ccb3a5" d="M 66.5,44.5 C 67.4959,44.4142 68.3292,44.7476 69,45.5C 69.5564,79.8336 70.0564,114.167 70.5,148.5C 68.5,148.5 66.5,148.5 64.5,148.5C 64.144,113.749 64.8107,79.0825 66.5,44.5 Z"/></g>
<g><path style="opacity:0.996" fill="#ceb5a6" d="M 110.5,45.5 C 111.5,45.5 112.5,45.5 113.5,45.5C 114.281,79.831 114.948,114.164 115.5,148.5C 113.167,148.5 110.833,148.5 108.5,148.5C 109.052,114.164 109.719,79.831 110.5,45.5 Z"/></g>
<g><path style="opacity:0.996" fill="#cdb5a6" d="M 59.5,57.5 C 60.1174,57.6107 60.6174,57.944 61,58.5C 62.528,88.4808 63.3614,118.481 63.5,148.5C 61.1667,148.5 58.8333,148.5 56.5,148.5C 56.4929,118.072 57.4929,87.7382 59.5,57.5 Z"/></g>
<g><path style="opacity:0.953" fill="#c9b0a3" d="M 118.5,58.5 C 119.496,58.4142 120.329,58.7476 121,59.5C 122.331,89.1498 122.831,118.817 122.5,148.5C 120.5,148.5 118.5,148.5 116.5,148.5C 116.012,118.408 116.679,88.4083 118.5,58.5 Z"/></g>
<g><path style="opacity:0.97" fill="#cbb2a4" d="M 51.5,70.5 C 52.4959,70.4142 53.3292,70.7476 54,71.5C 54.3333,73.5 54.6667,75.5 55,77.5C 55.5,101.164 55.6666,124.831 55.5,148.5C 53.5,148.5 51.5,148.5 49.5,148.5C 49.3334,124.831 49.5,101.164 50,77.5C 50.4396,75.1341 50.9396,72.8008 51.5,70.5 Z"/></g>
<g><path style="opacity:0.995" fill="#ceb5a6" d="M 126.5,70.5 C 128.13,72.0261 128.963,74.0261 129,76.5C 129.869,100.493 130.369,124.493 130.5,148.5C 128.167,148.5 125.833,148.5 123.5,148.5C 123.631,124.493 124.131,100.493 125,76.5C 125.315,74.4144 125.815,72.4144 126.5,70.5 Z"/></g>
<g><path style="opacity:0.996" fill="#cdb4a5" d="M 43.5,82.5 C 44.8221,82.33 45.9887,82.6634 47,83.5C 47.9952,105.156 48.4952,126.823 48.5,148.5C 46.1667,148.5 43.8333,148.5 41.5,148.5C 41.358,126.414 42.0246,104.414 43.5,82.5 Z"/></g>
<g><path style="opacity:0.944" fill="#dac0ab" d="M 133.5,82.5 C 134.496,82.4142 135.329,82.7476 136,83.5C 137.026,105.155 137.526,126.822 137.5,148.5C 135.5,148.5 133.5,148.5 131.5,148.5C 131.333,127.164 131.5,105.831 132,84.5C 132.717,83.9558 133.217,83.2891 133.5,82.5 Z"/></g>
<g><path style="opacity:0.947" fill="#dac0ab" d="M 36.5,95.5 C 38.0174,95.5106 39.1841,96.1772 40,97.5C 40.4999,114.497 40.6666,131.497 40.5,148.5C 38.5,148.5 36.5,148.5 34.5,148.5C 34.0985,130.732 34.7651,113.065 36.5,95.5 Z"/></g>
<g><path style="opacity:0.909" fill="#dac0ac" d="M 140.5,95.5 C 141.822,95.33 142.989,95.6634 144,96.5C 144.5,113.83 144.667,131.163 144.5,148.5C 142.5,148.5 140.5,148.5 138.5,148.5C 138.124,130.733 138.79,113.066 140.5,95.5 Z"/></g>
<g><path style="opacity:0.901" fill="#ddc2ad" d="M 28.5,108.5 C 30.3904,108.297 31.8904,108.963 33,110.5C 33.4999,123.162 33.6666,135.829 33.5,148.5C 31.5,148.5 29.5,148.5 27.5,148.5C 27.1858,135.087 27.5192,121.754 28.5,108.5 Z"/></g>
<g><path style="opacity:0.9" fill="#ddc3ad" d="M 147.5,108.5 C 149.39,108.297 150.89,108.963 152,110.5C 152.5,123.162 152.667,135.829 152.5,148.5C 150.5,148.5 148.5,148.5 146.5,148.5C 146.186,135.087 146.519,121.754 147.5,108.5 Z"/></g>
<g><path style="opacity:0.896" fill="#dac0ab" d="M 21.5,120.5 C 22.8221,120.33 23.9887,120.663 25,121.5C 25.4998,130.494 25.6664,139.494 25.5,148.5C 23.5,148.5 21.5,148.5 19.5,148.5C 19.3336,139.827 19.5002,131.16 20,122.5C 20.7172,121.956 21.2172,121.289 21.5,120.5 Z"/></g>
<g><path style="opacity:0.947" fill="#e0c5ae" d="M 155.5,120.5 C 156.822,120.33 157.989,120.663 159,121.5C 159.5,130.494 159.666,139.494 159.5,148.5C 157.5,148.5 155.5,148.5 153.5,148.5C 153.334,139.827 153.5,131.16 154,122.5C 154.717,121.956 155.217,121.289 155.5,120.5 Z"/></g>
<g><path style="opacity:0.944" fill="#dec3ad" d="M 13.5,133.5 C 15.1439,133.286 16.6439,133.62 18,134.5C 18.4992,139.155 18.6658,143.821 18.5,148.5C 16.5,148.5 14.5,148.5 12.5,148.5C 12.2213,143.405 12.5546,138.405 13.5,133.5 Z"/></g>
<g><path style="opacity:0.985" fill="#c9b1a4" d="M 162.5,133.5 C 164.39,133.297 165.89,133.963 167,135.5C 167.499,139.821 167.666,144.154 167.5,148.5C 165.167,148.5 162.833,148.5 160.5,148.5C 160.334,144.154 160.501,139.821 161,135.5C 161.717,134.956 162.217,134.289 162.5,133.5 Z"/></g>
<g><path style="opacity:0.919" fill="#c0aaa0" d="M 6.5,144.5 C 8.95822,144.227 10.6249,145.227 11.5,147.5C 9.95467,148.452 8.28801,148.785 6.5,148.5C 6.5,147.167 6.5,145.833 6.5,144.5 Z"/></g>
<g><path style="opacity:0.861" fill="#d4bba9" d="M 169.5,144.5 C 170.5,144.5 171.5,144.5 172.5,144.5C 172.5,145.833 172.5,147.167 172.5,148.5C 171.167,148.5 169.833,148.5 168.5,148.5C 168.433,147.041 168.766,145.708 169.5,144.5 Z"/></g>
</svg>
